<svg xmlns="http://www.w3.org/2000/svg" viewBox="0 0 36 24" aria-hidden="true">
  <rect width="36" height="24" fill="#de2910"/>
  <polygon fill="#ffde00" points="9,4 10.4,8.2 14.9,8.2 11.2,10.9 12.6,15.1 9,12.4 5.4,15.1 6.8,10.9 3.1,8.2 7.6,8.2"/>
  <polygon fill="#ffde00" points="16.5,3 16.9,4.2 18.2,4.2 17.1,5 17.5,6.2 16.5,5.4 15.5,6.2 15.9,5 14.8,4.2 16.1,4.2"/>
  <polygon fill="#ffde00" points="18.5,6.5 18.9,7.7 20.2,7.7 19.1,8.5 19.5,9.7 18.5,8.9 17.5,9.7 17.9,8.5 16.8,7.7 18.1,7.7"/>
  <polygon fill="#ffde00" points="18.5,10.5 18.9,11.7 20.2,11.7 19.1,12.5 19.5,13.7 18.5,12.9 17.5,13.7 17.9,12.5 16.8,11.7 18.1,11.7"/>
  <polygon fill="#ffde00" points="16.5,14 16.9,15.2 18.2,15.2 17.1,16 17.5,17.2 16.5,16.4 15.5,17.2 15.9,16 14.8,15.2 16.1,15.2"/>
</svg>
